<svg width="256" height="256" viewBox="0 0 256 256" fill="none" xmlns="http://www.w3.org/2000/svg">
<defs>
<linearGradient id="paint0_linear" x1="0" y1="0" x2="256" y2="256" gradientUnits="userSpaceOnUse">
<stop stop-color="#EC4899"/>
<stop offset="0.5" stop-color="#A855F7"/>
<stop offset="1" stop-color="#3B82F6"/>
</linearGradient>
<linearGradient id="coin_gradient" x1="0" y1="0" x2="0" y2="256" gradientUnits="userSpaceOnUse">
<stop stop-color="#EC4899"/>
<stop offset="0.5" stop-color="#A855F7"/>
<stop offset="1" stop-color="#3B82F6"/>
</linearGradient>
<filter id="inset-shadow" x="-50%" y="-50%" width="200%" height="200%">
  <feComponentTransfer in="SourceAlpha">
    <feFuncA type="table" tableValues="1 0" />
  </feComponentTransfer>
  <feGaussianBlur stdDeviation="3"/>
  <feOffset dx="0" dy="2" result="offsetblur"/>
  <feFlood flood-color="rgba(0,0,0,0.2)" result="color"/>
  <feComposite in2="offsetblur" operator="in"/>
  <feComposite in2="SourceAlpha" operator="in" />
  <feMerge>
    <feMergeNode in="SourceGraphic" />
    <feMergeNode />
  </feMerge>
</filter>
<mask id="cutout-mask" maskUnits="userSpaceOnUse">
<rect width="256" height="256" fill="white"/>
<path d="M64.5 19L100.44 79H28.5599L64.5 19Z" fill="black"/>
<path d="M69.5 16L111.502 115.75H27.4978L69.5 16Z" fill="black"/>
<path d="M82.5 54L148.751 181.5H16.2491L82.5 54Z" fill="black"/>
<path d="M87.5 115L153.751 217H21.2491L87.5 115Z" fill="black"/>
</mask>
</defs>
<circle cx="128" cy="128" r="128" fill="url(#coin_gradient)"/>
<circle cx="128" cy="128" r="118" stroke="white" stroke-opacity="0.5" stroke-width="4" fill="none"/>
<circle cx="128" cy="128" r="110" fill="white" opacity="0.1"/>
<g mask="url(#cutout-mask)">
<path d="M95.8281 129.579C99.2969 129.94 102.549 130.193 105.584 130.338C108.691 130.482 111.438 130.555 113.822 130.555C115.846 130.555 118.158 130.519 120.76 130.446C123.361 130.302 126.18 130.085 129.215 129.796C136.152 125.604 141.247 120.763 144.499 115.271C147.751 109.706 149.377 103.094 149.377 95.4336C149.377 85.3887 146.125 77.3311 139.621 71.2607C133.117 65.1904 124.373 62.1553 113.389 62.1553C110.426 62.1553 107.535 62.2998 104.717 62.5889C101.898 62.8057 99.1162 63.167 96.3701 63.6729C96.1533 72.6338 96.0088 81.8477 95.9365 91.3145C95.8643 100.781 95.8281 113.536 95.8281 129.579ZM57.2383 198.954C57.7441 199.026 58.2139 199.099 58.6475 199.171C59.1533 199.171 59.876 199.171 60.8154 199.171C70.4268 199.171 75.3047 185.657 75.4492 158.63C75.5215 151.837 75.5938 146.525 75.666 142.695L76.0996 113.103C76.1719 106.743 76.208 100.564 76.208 94.5664C76.2803 88.5684 76.3164 82.0645 76.3164 75.0547C76.3164 68.8398 75.1602 64.54 72.8477 62.1553C70.5352 59.7705 66.416 58.5781 60.4902 58.5781H59.623V50.9902C64.4648 51.3516 69.2344 51.6045 73.9316 51.749C78.7012 51.8936 83.3262 51.9658 87.8066 51.9658C92.6484 51.9658 98.6465 51.8213 105.801 51.5322C113.027 51.1709 117.833 50.9902 120.218 50.9902C135.032 50.9902 147.173 54.8926 156.64 62.6973C166.106 70.502 170.84 80.2939 170.84 92.0732C170.84 100.817 168.455 108.622 163.686 115.487C158.988 122.28 151.906 128.098 142.439 132.939L162.71 163.616C163.433 164.772 164.517 166.435 165.962 168.603C179.981 189.993 191.472 200.688 200.433 200.688H201.517V206.867C200.505 206.939 198.987 207.084 196.964 207.301C192.267 207.734 188.834 207.951 186.666 207.951C179.006 207.951 172.936 206.939 168.455 204.916C164.047 202.82 159.675 198.81 155.339 192.884C154.616 191.944 150.605 185.513 143.307 173.589C136.08 161.665 128.781 150.428 121.41 139.877C118.664 140.166 115.737 140.383 112.63 140.527C109.522 140.672 106.09 140.744 102.332 140.744H95.8281V174.022C95.8281 184.862 96.9482 191.728 99.1885 194.618C101.429 197.437 105.873 198.846 112.521 198.846C112.738 198.846 113.027 198.81 113.389 198.737C113.75 198.665 114.039 198.629 114.256 198.629C114.545 198.629 114.762 198.665 114.906 198.737C115.123 198.81 115.268 198.846 115.34 198.846V206C110.209 205.711 105.114 205.494 100.056 205.35C94.9971 205.205 89.9746 205.133 84.9883 205.133C82.3145 205.133 78.5566 205.205 73.7148 205.35C68.873 205.494 63.3809 205.711 57.2383 206V198.954Z" fill="white"/>
</g>
<path d="M74 164C74 163.448 74.4477 163 75 163H87C87.5523 163 88 163.448 88 164V176C88 176.552 87.5523 177 87 177H75C74.4477 177 74 176.552 74 176V164Z" fill="white"/>
<path d="M93 164C93 163.448 93.4477 163 94 163H106C106.552 163 107 163.448 107 164V176C107 176.552 106.552 177 106 177H94C93.4477 177 93 176.552 93 176V164Z" fill="white"/>
<path d="M74 183.5C74 182.948 74.4477 182.5 75 182.5H87C87.5523 182.5 88 182.948 88 183.5V195.5C88 196.052 87.5523 196.5 87 196.5H75C74.4477 196.5 74 196.052 74 195.5V183.5Z" fill="white"/>
<path d="M93 184C93 183.448 93.4477 183 94 183H106C106.552 183 107 183.448 107 184V196C107 196.552 106.552 197 106 197H94C93.4477 197 93 196.552 93 196V184Z" fill="white"/>
<path d="M93.1719 109.031C93.1615 109.427 93.1458 109.99 93.125 110.719C92.9896 114.906 92.9219 117.854 92.9219 119.562V121.219C92.9219 122.427 93.0365 123.188 93.2656 123.5C93.4948 123.812 93.9427 123.969 94.6094 123.969C94.6719 123.969 94.7552 123.964 94.8594 123.953C94.9635 123.943 95.0417 123.938 95.0938 123.938V125C94.2083 124.938 93.4948 124.896 92.9531 124.875C92.4115 124.854 91.9531 124.844 91.5781 124.844C91.2448 124.844 90.8177 124.854 90.2969 124.875C89.7865 124.896 89.0156 124.938 87.9844 125V123.906H88.375C89.6667 123.906 90.3177 122.635 90.3281 120.094C90.3281 119.729 90.3281 119.443 90.3281 119.234L90.3906 115.375C90.3906 115.094 90.3958 114.74 90.4062 114.312C90.4167 113.885 90.4219 113.599 90.4219 113.453C90.4219 112.609 90.3385 112.052 90.1719 111.781C90.0156 111.51 89.724 111.375 89.2969 111.375C89.2135 111.375 89.0885 111.385 88.9219 111.406C88.7656 111.417 88.5938 111.432 88.4062 111.453L88.25 110.469C89.0729 110.312 89.8906 110.115 90.7031 109.875C91.526 109.635 92.349 109.354 93.1719 109.031ZM91.4844 101.672L92.5938 102.5C92.8854 102.719 93.099 102.938 93.2344 103.156C93.3698 103.375 93.4375 103.604 93.4375 103.844C93.4375 104.083 93.3802 104.292 93.2656 104.469C93.1615 104.635 92.9583 104.833 92.6562 105.062L91.4844 105.953L90.3906 105.094C90.0885 104.854 89.8698 104.635 89.7344 104.438C89.599 104.229 89.5312 104.01 89.5312 103.781C89.5312 103.552 89.5833 103.354 89.6875 103.188C89.7917 103.01 90.0052 102.802 90.3281 102.562L91.4844 101.672Z" fill="white"/>
</svg>
