<svg width="122" height="29" viewBox="0 0 122 29" fill="none" xmlns="http://www.w3.org/2000/svg">
<path d="M67.9363 14.2141C67.3889 14.2662 67.2294 14.325 66.7603 14.3509C68.0778 16.2658 69.1834 19.9769 70.4781 22.1129C71.7944 24.2636 72.5178 25.4236 72.6482 25.5931C73.4303 26.662 74.2189 27.3853 75.0139 27.7633C75.8222 28.1282 76.917 28.3107 78.2986 28.3107C78.6897 28.3107 79.3089 28.2716 80.1561 28.1935C80.521 28.1543 80.7947 28.1282 80.9773 28.1152V27.0007H80.7818C79.1655 27.0007 77.0929 25.0717 74.5643 21.2136C74.3037 20.8226 74.1081 20.5226 73.9777 20.3141L70.3215 14.7809C72.029 13.9078 73.3064 12.8584 74.1538 11.6332C75.0139 10.3949 75.4441 8.98716 75.4441 7.41006C75.4441 5.28545 74.5903 3.51931 72.8829 2.11159C71.1754 0.703868 68.9855 0 66.3135 0C65.8834 0 65.0165 0.0325925 63.7132 0.0977595C62.4227 0.149904 61.3409 0.175966 60.4675 0.175966L62.0121 2.28755C62.5074 2.19631 63.0092 2.13114 63.5176 2.09204C64.0259 2.03989 64.5474 2.01383 65.0818 2.01383C67.063 2.01383 68.6401 2.56126 69.8132 3.65615C70.9863 4.75106 71.5729 6.20439 71.5729 8.01617C71.5729 9.39786 71.2796 10.5905 70.693 11.5942C70.1065 12.5848 69.1875 13.4579 67.9363 14.2141Z" fill="url(#main_gradient)"/>
<path d="M57.9773 20.3834C57.9773 20.2838 58.058 20.203 58.1576 20.203H60.3221C60.4217 20.203 60.5024 20.2838 60.5024 20.3834V22.5478C60.5024 22.6474 60.4217 22.7282 60.3221 22.7282H58.1576C58.058 22.7282 57.9773 22.6474 57.9773 22.5478V20.3834Z" fill="url(#main_gradient)"/>
<path d="M61.4043 20.3834C61.4043 20.2838 61.485 20.203 61.5846 20.203H63.7491C63.8486 20.203 63.9294 20.2838 63.9294 20.3834V22.5478C63.9294 22.6474 63.8486 22.7282 63.7491 22.7282H61.5846C61.485 22.7282 61.4043 22.6474 61.4043 22.5478V20.3834Z" fill="url(#main_gradient)"/>
<path d="M57.9773 23.9005C57.9773 23.801 58.058 23.7202 58.1576 23.7202H60.3221C60.4217 23.7202 60.5024 23.801 60.5024 23.9005V26.0649C60.5024 26.1645 60.4217 26.2453 60.3221 26.2453H58.1576C58.058 26.2453 57.9773 26.1645 57.9773 26.0649V23.9005Z" fill="url(#main_gradient)"/>
<path d="M61.4043 23.9907C61.4043 23.8912 61.485 23.8104 61.5846 23.8104H63.7491C63.8486 23.8104 63.9294 23.8912 63.9294 26.1551C63.9294 26.2547 63.8486 26.3355 63.7491 26.3355H61.5846C61.485 26.3355 61.4043 26.2547 61.4043 26.1551V23.9907Z" fill="url(#main_gradient)"/>
<path d="M61.4353 10.4687C61.4334 10.5402 61.4306 10.6417 61.4268 10.7732C61.4024 11.5284 61.3902 12.0601 61.3902 12.3682V12.6671C61.3902 12.8849 61.4108 13.0222 61.4522 13.0785C61.4935 13.1348 61.5743 13.1631 61.6945 13.1631C61.7058 13.1631 61.7208 13.1622 61.7396 13.1602C61.7584 13.1584 61.7725 13.1575 61.7819 13.1575V13.349C61.6222 13.3378 61.4935 13.3303 61.3958 13.3265C61.2981 13.3227 61.2154 13.3209 61.1478 13.3209C61.0877 13.3209 61.0106 13.3227 60.9167 13.3265C60.8247 13.3303 60.6856 13.3378 60.4996 13.349V13.1517H60.5701C60.803 13.1517 60.9205 12.9225 60.9223 12.4641C60.9223 12.3983 60.9223 12.3467 60.9223 12.309L60.9336 11.613C60.9336 11.5623 60.9345 11.4985 60.9364 11.4213C60.9383 11.3442 60.9393 11.2927 60.9393 11.2663C60.9393 11.1141 60.9242 11.0136 60.8942 10.9647C60.866 10.9159 60.8134 10.8915 60.7363 10.8915C60.7213 10.8915 60.6988 10.8933 60.6687 10.8971C60.6405 10.8991 60.6095 10.9018 60.5757 10.9056L60.5475 10.7281C60.6959 10.6998 60.8434 10.6642 60.99 10.621C61.1384 10.5777 61.2868 10.527 61.4353 10.4687ZM61.1309 9.1414L61.331 9.29075C61.3836 9.33025 61.4221 9.36975 61.4465 9.40907C61.471 9.44857 61.4832 9.48987 61.4832 9.53316C61.4832 9.57627 61.4728 9.61397 61.4522 9.64589C61.4334 9.67583 61.3967 9.71154 61.3423 9.75285L61.1309 9.91356L60.9336 9.75862C60.8791 9.71533 60.8397 9.67583 60.8153 9.6403C60.7908 9.6026 60.7786 9.5631 60.7786 9.5218C60.7786 9.48049 60.788 9.44478 60.8068 9.41484C60.8256 9.38273 60.8641 9.34522 60.9223 9.30193L61.1309 9.1414Z" fill="url(#main_gradient)"/>
<path d="M89.8636 27.3409C88.0682 27.3409 86.5227 26.9773 85.2273 26.25C83.9394 25.5151 82.947 24.4773 82.25 23.1363C81.553 21.7879 81.2045 20.1932 81.2045 18.3523C81.2045 16.5568 81.553 14.981 82.25 13.625C82.947 12.2689 83.928 11.2121 85.1932 10.4545C86.4659 9.69696 87.9583 9.31817 89.6705 9.31817C90.822 9.31817 91.8939 9.50377 92.8864 9.87499C93.8864 10.2386 94.7576 10.7879 95.5 11.5227C96.25 12.2576 96.8333 13.1818 97.25 14.2954C97.6667 15.4015 97.875 16.697 97.875 18.1818V19.5113H83.1364V16.5113H93.3182C93.3182 15.8144 93.1667 15.197 92.8636 14.6591C92.5606 14.1212 92.1402 13.7007 91.6023 13.3977C91.072 13.0871 90.4545 12.9318 89.75 12.9318C89.0152 12.9318 88.3636 13.1023 87.7955 13.4432C87.2348 13.7765 86.7955 14.2273 86.4773 14.7954C86.1591 15.356 85.9962 15.981 85.9886 16.6704V19.5227C85.9886 20.3863 86.1477 21.1326 86.4659 21.7613C86.7917 22.3901 87.25 22.875 87.8409 23.2159C88.4318 23.5568 89.1326 23.7273 89.9432 23.7273C90.4811 23.7273 90.9735 23.6515 91.4205 23.5C91.8674 23.3485 92.25 23.1212 92.5682 22.8182C92.8864 22.5151 93.1288 22.1439 93.2955 21.7045L97.7727 22C97.5455 23.0757 97.0795 24.0151 96.375 24.8182C95.678 25.6136 94.7765 26.2348 93.6705 26.6818C92.572 27.1212 91.303 27.3409 89.8636 27.3409Z" fill="url(#main_gradient)"/>
<path d="M104.411 27.3295C103.298 27.3295 102.305 27.1363 101.434 26.75C100.563 26.356 99.8735 25.7765 99.3659 25.0113C98.8659 24.2386 98.6159 23.2765 98.6159 22.125C98.6159 21.1553 98.7939 20.3409 99.15 19.6818C99.5061 19.0227 99.9909 18.4924 100.605 18.0909C101.218 17.6894 101.915 17.3863 102.695 17.1818C103.483 16.9773 104.309 16.8333 105.173 16.75C106.188 16.6439 107.006 16.5454 107.627 16.4545C108.248 16.356 108.699 16.2121 108.98 16.0227C109.26 15.8333 109.4 15.553 109.4 15.1818V15.1136C109.4 14.3939 109.173 13.8371 108.718 13.4432C108.271 13.0492 107.635 12.8523 106.809 12.8523C105.938 12.8523 105.245 13.0454 104.73 13.4318C104.214 13.8106 103.873 14.2879 103.707 14.8636L99.2295 14.5C99.4568 13.4394 99.9038 12.5227 100.57 11.75C101.237 10.9697 102.097 10.3712 103.15 9.95453C104.211 9.53029 105.438 9.31817 106.832 9.31817C107.802 9.31817 108.73 9.4318 109.616 9.65908C110.51 9.88635 111.302 10.2386 111.991 10.7159C112.688 11.1932 113.237 11.8068 113.639 12.5568C114.04 13.2992 114.241 14.1894 114.241 15.2273V27H109.65V24.5795H109.514C109.233 25.125 108.858 25.606 108.389 26.0227C107.919 26.4318 107.355 26.7538 106.695 26.9886C106.036 27.2159 105.275 27.3295 104.411 27.3295ZM105.798 23.9886C106.51 23.9886 107.139 23.8485 107.684 23.5682C108.23 23.2803 108.658 22.8939 108.968 22.4091C109.279 21.9242 109.434 21.375 109.434 20.7613V18.9091C109.283 19.0076 109.074 19.0985 108.809 19.1818C108.552 19.2576 108.26 19.3295 107.934 19.3977C107.608 19.4583 107.283 19.5151 106.957 19.5682C106.631 19.6136 106.336 19.6553 106.07 19.6932C105.502 19.7765 105.006 19.9091 104.582 20.0909C104.158 20.2727 103.828 20.5189 103.593 20.8295C103.358 21.1326 103.241 21.5113 103.241 21.9659C103.241 22.625 103.48 23.1288 103.957 23.4773C104.442 23.8182 105.055 23.9886 105.798 23.9886Z" fill="url(#main_gradient)"/>
<path d="M121.238 3.72726V27H116.397V3.72726H121.238Z" fill="url(#main_gradient)"/>
<path d="M0 27V3.72727H4.92045V22.9432H14.8977V27H0Z" fill="url(#main_gradient)"/>
<path d="M16.4653 27V9.54546H21.3062V27H16.4653ZM18.8972 7.29546C18.1775 7.29546 17.56 7.05682 17.0449 6.57955C16.5373 6.0947 16.2835 5.51515 16.2835 4.84091C16.2835 4.17424 16.5373 3.60227 17.0449 3.125C17.56 2.64015 18.1775 2.39773 18.8972 2.39773C19.6169 2.39773 20.2305 2.64015 20.7381 3.125C21.2532 3.60227 21.5108 4.17424 21.5108 4.84091C21.5108 5.51515 21.2532 6.0947 20.7381 6.57955C20.2305 7.05682 19.6169 7.29546 18.8972 7.29546Z" fill="url(#main_gradient)"/>
<path d="M39.8568 9.54546L33.7545 27H28.3L22.1977 9.54546H27.3114L30.9364 22.0341H31.1182L34.7318 9.54546H39.8568Z" fill="url(#main_gradient)"/>
<path d="M48.1261 27.3409C46.3307 27.3409 44.7852 26.9773 43.4898 26.25C42.2019 25.5152 41.2095 24.4773 40.5125 23.1364C39.8155 21.7879 39.467 20.1932 39.467 18.3523C39.467 16.5568 39.8155 14.9811 40.5125 13.625C41.2095 12.2689 42.1905 11.2121 43.4557 10.4545C44.7284 9.69697 46.2208 9.31818 47.933 9.31818C49.0845 9.31818 50.1564 9.50379 51.1489 9.875C52.1489 10.2386 53.0201 10.7879 53.7625 11.5227C54.5125 12.2576 55.0958 13.1818 55.5125 14.2955C55.9292 15.4015 56.1375 16.697 56.1375 18.1818V19.5114H41.3989V16.5114H51.5807C51.5807 15.8144 51.4292 15.197 51.1261 14.6591C50.8231 14.1212 50.4027 13.7008 49.8648 13.3977C49.3345 13.0871 48.717 12.9318 48.0125 12.9318C47.2777 12.9318 46.6261 13.1023 46.058 13.4432C45.4974 13.7765 45.058 14.2273 44.7398 14.7955C44.4216 15.3561 44.2587 15.9811 44.2511 16.6705V19.5227C44.2511 20.3864 44.4102 21.1326 44.7284 21.7614C45.0542 22.3902 45.5125 22.875 46.1034 23.2159C46.6943 23.5568 47.3951 23.7273 48.2057 23.7273C48.7436 23.7273 49.236 23.6515 49.683 23.5C50.1299 23.3485 50.5125 23.1212 50.8307 22.8182C51.1489 22.5152 51.3913 22.1439 51.558 21.7045L56.0352 22C55.808 23.0758 55.342 24.0152 54.6375 24.8182C53.9405 25.6136 53.039 26.2349 51.933 26.6818C50.8345 27.1212 49.5655 27.3409 48.1261 27.3409Z" fill="url(#main_gradient)"/>
<defs>
<linearGradient id="main_gradient" x1="0" y1="14.5" x2="122" y2="14.5" gradientUnits="userSpaceOnUse">
<stop stop-color="#EC4899"/>
<stop offset="0.5" stop-color="#A855F7"/>
<stop offset="1" stop-color="#3B82F6"/>
</linearGradient>
</defs>
</svg>
